HIERARCHY
ROOT RootJoint
{
    OFFSET   0.000000   0.000000   0.000000
    CHANNELS 6 Xposition Yposition Zposition Xrotation Yrotation Zrotation
    JOINT pelvis_lowerback
    {
        OFFSET   0.000000   0.093605   0.000000
        CHANNELS 3 Xrotation Yrotation Zrotation
        JOINT lowerback_torso
        {
            OFFSET   0.000000   0.100000   0.000000
            CHANNELS 3 Xrotation Yrotation Zrotation
            JOINT torso_head
            {
                OFFSET   0.000000   0.282350   0.000000
                CHANNELS 3 Xrotation Yrotation Zrotation
                End Site
                {
                    OFFSET   0.000000   0.192650   0.000000
                }
            }
            JOINT rTorso_Clavicle
            {
                OFFSET  -0.001000   0.157500   0.000000
                CHANNELS 3 Xrotation Yrotation Zrotation
                JOINT rShoulder
                {
                    OFFSET  -0.117647   0.000000   0.000000
                    CHANNELS 3 Xrotation Yrotation Zrotation
                    JOINT rElbow
                    {
                        OFFSET  -0.245000   0.000000   0.000000
                        CHANNELS 3 Xrotation Yrotation Zrotation
                        JOINT rWrist
                        {
                            OFFSET  -0.240000   0.000000   0.000000
                            CHANNELS 3 Xrotation Yrotation Zrotation
                            End Site
                            {
                                OFFSET  -0.116353  -0.002500   0.000000
                            }
                        }
                    }
                }
            }
            JOINT lTorso_Clavicle
            {
                OFFSET   0.001000   0.157500   0.000000
                CHANNELS 3 Xrotation Yrotation Zrotation
                JOINT lShoulder
                {
                    OFFSET   0.117647   0.000000   0.000000
                    CHANNELS 3 Xrotation Yrotation Zrotation
                    JOINT lElbow
                    {
                        OFFSET   0.245000   0.000000   0.000000
                        CHANNELS 3 Xrotation Yrotation Zrotation
                        JOINT lWrist
                        {
                            OFFSET   0.240000   0.000000   0.000000
                            CHANNELS 3 Xrotation Yrotation Zrotation
                            End Site
                            {
                                OFFSET   0.116353  -0.002500   0.000000
                            }
                        }
                    }
                }
            }
        }
    }
    JOINT rHip
    {
        OFFSET  -0.100000  -0.051395   0.000000
        CHANNELS 3 Xrotation Yrotation Zrotation
        JOINT rKnee
        {
            OFFSET   0.000000  -0.410000   0.000000
            CHANNELS 3 Xrotation Yrotation Zrotation
            JOINT rAnkle
            {
                OFFSET   0.000000  -0.390000   0.000000
                CHANNELS 3 Xrotation Yrotation Zrotation
                JOINT rToeJoint
                {
                    OFFSET   0.000000  -0.050000   0.130000
                    CHANNELS 3 Xrotation Yrotation Zrotation
                    End Site
                    {
                        OFFSET  -0.010000   0.002000   0.060000
                    }
                }
            }
        }
    }
    JOINT lHip
    {
        OFFSET   0.100000  -0.051395   0.000000
        CHANNELS 3 Xrotation Yrotation Zrotation
        JOINT lKnee
        {
            OFFSET   0.000000  -0.410000   0.000000
            CHANNELS 3 Xrotation Yrotation Zrotation
            JOINT lAnkle
            {
                OFFSET   0.000000  -0.390000   0.000000
                CHANNELS 3 Xrotation Yrotation Zrotation
                JOINT lToeJoint
                {
                    OFFSET   0.000000  -0.050000   0.130000
                    CHANNELS 3 Xrotation Yrotation Zrotation
                    End Site
                    {
                        OFFSET   0.010000   0.002000   0.060000
                    }
                }
            }
        }
    }
}
MOTION
Frames: 7
Frame Time:   0.008333
 -2.426897   0.909728   4.053204  -7.002924   3.123423  -3.242948  -6.241956   0.451839  -3.762466   0.434156  -3.374784  -3.135466  -0.111783  -2.894065   2.252082 -10.487553 -15.921457 -13.403356 -35.672385  -9.507216   7.730836 -179.990052  80.895888 179.993165   1.349274   9.617591 -12.166843   5.358559  11.982801   2.954233  22.212569  -6.995244 -39.622222 179.999056 -87.876945 179.998306   5.535790 -10.363853  -4.011900  12.157134  -2.910837   5.950829   3.249407  -0.000001  -0.000003  -7.871720  -7.179377  -2.015009  -0.906658  -0.000000  -0.000000   2.617809   0.487890   8.562157  20.827548  -0.000013   0.000014 -18.521520   7.984356   2.533446   2.724396  -0.000002   0.000005
 -2.426866   0.909754   4.052565  -6.955919   3.214659  -3.250860  -6.094582   0.458146  -3.797050   0.429843  -3.357125  -3.212773  -0.114418  -2.899373   2.223792 -10.500683 -15.971978 -13.427337 -35.717949  -9.590342   7.627093 -179.990448  81.202361 179.993351   1.315531   9.622407 -12.065869   5.354556  12.041420   2.884228  22.150837  -6.887277 -39.652100 179.999868 -87.835127 179.999173   5.481972 -10.323801  -4.008733  12.076273  -2.918761   5.974018   3.239028  -0.000001  -0.000010  -7.836137  -7.265248  -2.023025  -0.898300  -0.000000  -0.000000   2.478222   0.376847   8.566538  20.911199  -0.000008   0.000008 -18.526230   7.889430   2.495784   2.712937  -0.000006   0.000014
 -2.426830   0.909783   4.051909  -6.909618   3.309229  -3.255524  -5.945314   0.470460  -3.833951   0.432647  -3.335629  -3.290437  -0.114452  -2.904201   2.194944 -10.515604 -16.021537 -13.450289 -35.762766  -9.672350   7.528245 -179.990739  81.496607 179.993417   1.274688   9.584924 -11.978807   5.350316  12.101656   2.819820  22.093139  -6.782294 -39.679386 -179.999553 -87.796642 179.999804   5.430142 -10.283405  -3.989201  11.996297  -2.930440   5.993914   3.227094  -0.000002  -0.000017  -7.800785  -7.351297  -2.030607  -0.887346  -0.000000  -0.000000   2.339410   0.268516   8.567887  20.990421  -0.000002   0.000007 -18.529903   7.799521   2.461179   2.701889  -0.000009   0.000019
 -2.426789   0.909817   4.051246  -6.865004   3.404054  -3.258286  -5.797128   0.487054  -3.872001   0.442194  -3.310696  -3.365927  -0.113123  -2.908446   2.167141 -10.529866 -16.067269 -13.472027 -35.805063  -9.749125   7.435850 -179.990953  81.772553 179.993390   1.232709   9.535333 -11.897873   5.347874  12.161548   2.760109  22.041009  -6.681779 -39.704824 -179.999190 -87.761595 -179.999782   5.380646 -10.240199  -3.966185  11.918001  -2.944880   6.011216   3.214571  -0.000002  -0.000023  -7.764226  -7.435252  -2.037289  -0.876982  -0.000000  -0.000000   2.203935   0.166624   8.567783  21.063921   0.000003   0.000011 -18.533172   7.715719   2.428626   2.691760  -0.000010   0.000022
 -2.426741   0.909854   4.050582  -6.822363   3.498427  -3.259638  -5.651241   0.506916  -3.910390   0.457155  -3.282952  -3.438625  -0.110995  -2.912268   2.140772 -10.542897 -16.108171 -13.492694 -35.844645  -9.819775   7.349969 -179.991133  82.030167 179.993321   1.191950   9.485186 -11.819461   5.347071  12.220014   2.704575  21.993968  -6.586233 -39.728565 -179.998981 -87.729615 -179.999523   5.333397 -10.194614  -3.944357  11.841761  -2.961534   6.026251   3.201961  -0.000002  -0.000027  -7.726557  -7.516847  -2.042950  -0.867937  -0.000000  -0.000000   2.072578   0.071020   8.566547  21.131938   0.000008   0.000016 -18.536173   7.637669   2.397988   2.682436  -0.000011   0.000023
 -2.426688   0.909901   4.049924  -6.782088   3.593285  -3.261906  -5.508713   0.528949  -3.947256   0.476433  -3.253311  -3.507650  -0.108265  -2.915759   2.115977 -10.554577 -16.144341 -13.512102 -35.881522  -9.884483   7.270365 -179.991318  82.270363 179.993258   1.153092   9.437981 -11.742173   5.347552  12.276362   2.652514  21.951378  -6.495915 -39.750842 -179.998870 -87.700371 -179.999365   5.288288 -10.147434  -3.925144  11.767518  -2.980584   6.041615   3.191055  -0.000002  -0.000029  -7.683803  -7.596545  -2.047059  -0.868131  -0.000000  -0.000000   1.946825  -0.019003   8.566795  21.193483   0.000012   0.000022 -18.539356   7.564849   2.369486   2.673932  -0.000011   0.000022
 -2.426628   0.909949   4.049275  -6.743768   3.687266  -3.262562  -5.369975   0.553202  -3.984257   0.498760  -3.221944  -3.573751  -0.105299  -2.918930   2.092638 -10.564970 -16.175782 -13.530712 -35.915909  -9.943408   7.196627 -179.991523  82.494235 179.993224   1.116139   9.394177 -11.666086   5.348847  12.330359   2.604401  21.912590  -6.410623 -39.771470 -179.998824 -87.673432 -179.999275   5.245116 -10.099956  -3.907677  11.695776  -3.001289   6.054380   3.180527  -0.000003  -0.000031  -7.641786  -7.673981  -2.050165  -0.868286  -0.000000  -0.000000   1.825622  -0.103418   8.565456  21.250304   0.000015   0.000029 -18.542352   7.497021   2.342697   2.666015  -0.000011   0.000021
